<svg width="12" height="12" viewBox="0 0 12 12" fill="none" xmlns="http://www.w3.org/2000/svg">
<path d="M4.66659 1.33334H1.99992C1.63173 1.33334 1.33325 1.63181 1.33325 2V4.66667C1.33325 5.03486 1.63173 5.33334 1.99992 5.33334H4.66659C5.03478 5.33334 5.33325 5.03486 5.33325 4.66667V2C5.33325 1.63181 5.03478 1.33334 4.66659 1.33334Z" fill="#151875"/>
<path d="M10.0001 1.33334H7.33341C6.96522 1.33334 6.66675 1.63181 6.66675 2V4.66667C6.66675 5.03486 6.96522 5.33334 7.33341 5.33334H10.0001C10.3683 5.33334 10.6667 5.03486 10.6667 4.66667V2C10.6667 1.63181 10.3683 1.33334 10.0001 1.33334Z" fill="#151875"/>
<path d="M4.66659 6.66667H1.99992C1.63173 6.66667 1.33325 6.96515 1.33325 7.33334V10C1.33325 10.3682 1.63173 10.6667 1.99992 10.6667H4.66659C5.03478 10.6667 5.33325 10.3682 5.33325 10V7.33334C5.33325 6.96515 5.03478 6.66667 4.66659 6.66667Z" fill="#151875"/>
<path d="M10.0001 6.66667H7.33341C6.96522 6.66667 6.66675 6.96515 6.66675 7.33334V10C6.66675 10.3682 6.96522 10.6667 7.33341 10.6667H10.0001C10.3683 10.6667 10.6667 10.3682 10.6667 10V7.33334C10.6667 6.96515 10.3683 6.66667 10.0001 6.66667Z" fill="#151875"/>
</svg>
