<svg width="10" height="9" viewBox="0 0 10 9" fill="none" xmlns="http://www.w3.org/2000/svg">
<path d="M8.8682 3.23041L6.38871 2.86808L5.28031 0.608627C5.25003 0.546765 5.20023 0.496686 5.13871 0.466246C4.98441 0.389654 4.79691 0.45348 4.71976 0.608627L3.61136 2.86808L1.13187 3.23041C1.06351 3.24023 1.00101 3.27264 0.953159 3.32173C0.895309 3.38152 0.863431 3.46195 0.864529 3.54536C0.865628 3.62877 0.899614 3.70833 0.959018 3.76655L2.75296 5.52521L2.32914 8.00854C2.3192 8.06631 2.32555 8.12572 2.34749 8.18004C2.36942 8.23436 2.40605 8.28141 2.45323 8.31586C2.5004 8.35032 2.55623 8.37079 2.61439 8.37496C2.67255 8.37913 2.7307 8.36683 2.78226 8.33946L5.00003 7.16702L7.21781 8.33946C7.27835 8.37186 7.34867 8.38266 7.41605 8.37088C7.58597 8.34142 7.70023 8.1794 7.67093 8.00854L7.2471 5.52521L9.04105 3.76655C9.08988 3.71844 9.1221 3.65559 9.13187 3.58686C9.15824 3.41502 9.0391 3.25594 8.8682 3.23041Z" fill="#FFD659"/>
</svg>
