<svg width="11" height="10" viewBox="0 0 11 10" fill="none" xmlns="http://www.w3.org/2000/svg">
<path d="M10.0799 1.305C9.54905 0.774002 8.84525 0.451162 8.09651 0.395189C7.34776 0.339216 6.60379 0.553829 5.99989 0.999998C5.36372 0.526817 4.57189 0.312254 3.78385 0.399517C2.99582 0.48678 2.27011 0.869387 1.75288 1.47029C1.23565 2.07119 0.965305 2.84576 0.996294 3.63801C1.02728 4.43025 1.3573 5.18133 1.91989 5.74L5.64489 9.465C5.69138 9.51186 5.74668 9.54906 5.80761 9.57444C5.86854 9.59983 5.93389 9.6129 5.99989 9.6129C6.0659 9.6129 6.13125 9.59983 6.19218 9.57444C6.25311 9.54906 6.30841 9.51186 6.35489 9.465L10.0799 5.74C10.3712 5.44886 10.6023 5.10317 10.76 4.72268C10.9177 4.34219 10.9988 3.93436 10.9988 3.5225C10.9988 3.11063 10.9177 2.7028 10.76 2.32232C10.6023 1.94183 10.3712 1.59614 10.0799 1.305ZM9.37489 5.035L5.99989 8.405L2.62489 5.035C2.32748 4.73635 2.12488 4.35652 2.04251 3.94317C1.96014 3.52981 2.00166 3.10134 2.16187 2.7115C2.32208 2.32165 2.59384 1.98779 2.94307 1.75181C3.29229 1.51582 3.70342 1.38822 4.12489 1.385C4.68795 1.38638 5.22744 1.61117 5.62489 2.01C5.67138 2.05686 5.72668 2.09406 5.78761 2.11944C5.84854 2.14483 5.91389 2.1579 5.97989 2.1579C6.0459 2.1579 6.11125 2.14483 6.17218 2.11944C6.23311 2.09406 6.28841 2.05686 6.33489 2.01C6.74406 1.65544 7.27264 1.46957 7.81366 1.49001C8.35469 1.51045 8.86774 1.73567 9.24899 2.12009C9.63023 2.50451 9.85119 3.01942 9.86714 3.56059C9.88308 4.10177 9.69283 4.62879 9.33489 5.035H9.37489Z" fill="#404040"/>
</svg>
