<svg width="8" height="8" viewBox="0 0 8 8" fill="none" xmlns="http://www.w3.org/2000/svg">
<path d="M0.199951 0.900342C0.199951 0.820777 0.231558 0.744471 0.287819 0.68821C0.34408 0.631949 0.420386 0.600342 0.499951 0.600342H0.723151C1.10315 0.600342 1.33115 0.855942 1.46115 1.09354C1.54795 1.25194 1.61075 1.43554 1.65995 1.60194C1.67326 1.60089 1.6866 1.60036 1.69995 1.60034H6.69915C7.03115 1.60034 7.27115 1.91794 7.17995 2.23754L6.44875 4.80114C6.38319 5.03108 6.2445 5.2334 6.05366 5.37746C5.86283 5.52153 5.63026 5.59949 5.39115 5.59954H3.01195C2.77095 5.59955 2.53661 5.52041 2.34496 5.37429C2.15331 5.22817 2.01495 5.02315 1.95115 4.79074L1.64715 3.68194L1.14315 1.98274L1.14275 1.97954C1.08035 1.75274 1.02195 1.54034 0.934751 1.38194C0.851151 1.22794 0.783951 1.20034 0.723551 1.20034H0.499951C0.420386 1.20034 0.34408 1.16873 0.287819 1.11247C0.231558 1.05621 0.199951 0.979907 0.199951 0.900342ZM2.22915 3.53634L2.52955 4.63194C2.58955 4.84874 2.78675 4.99954 3.01195 4.99954H5.39115C5.49983 4.99954 5.60556 4.96413 5.69231 4.89866C5.77907 4.8332 5.84213 4.74125 5.87195 4.63674L6.56675 2.20034H1.83395L2.22355 3.51514L2.22915 3.53634Z" fill="url(#paint0_linear_818_2948)"/>
<path d="M3.6 6.80034C3.6 7.01251 3.51571 7.21599 3.36569 7.36602C3.21566 7.51605 3.01217 7.60034 2.8 7.60034C2.58783 7.60034 2.38434 7.51605 2.23431 7.36602C2.08429 7.21599 2 7.01251 2 6.80034C2 6.58816 2.08429 6.38468 2.23431 6.23465C2.38434 6.08462 2.58783 6.00034 2.8 6.00034C3.01217 6.00034 3.21566 6.08462 3.36569 6.23465C3.51571 6.38468 3.6 6.58816 3.6 6.80034ZM3 6.80034C3 6.74729 2.97893 6.69642 2.94142 6.65891C2.90391 6.62141 2.85304 6.60034 2.8 6.60034C2.74696 6.60034 2.69609 6.62141 2.65858 6.65891C2.62107 6.69642 2.6 6.74729 2.6 6.80034C2.6 6.85338 2.62107 6.90425 2.65858 6.94176C2.69609 6.97926 2.74696 7.00034 2.8 7.00034C2.85304 7.00034 2.90391 6.97926 2.94142 6.94176C2.97893 6.90425 3 6.85338 3 6.80034Z" fill="url(#paint1_linear_818_2948)"/>
<path d="M6.40005 6.80034C6.40005 7.01251 6.31576 7.21599 6.16573 7.36602C6.01571 7.51605 5.81222 7.60034 5.60005 7.60034C5.38788 7.60034 5.18439 7.51605 5.03436 7.36602C4.88433 7.21599 4.80005 7.01251 4.80005 6.80034C4.80005 6.58816 4.88433 6.38468 5.03436 6.23465C5.18439 6.08462 5.38788 6.00034 5.60005 6.00034C5.81222 6.00034 6.01571 6.08462 6.16573 6.23465C6.31576 6.38468 6.40005 6.58816 6.40005 6.80034ZM5.80005 6.80034C5.80005 6.74729 5.77898 6.69642 5.74147 6.65891C5.70396 6.62141 5.65309 6.60034 5.60005 6.60034C5.54701 6.60034 5.49613 6.62141 5.45863 6.65891C5.42112 6.69642 5.40005 6.74729 5.40005 6.80034C5.40005 6.85338 5.42112 6.90425 5.45863 6.94176C5.49613 6.97926 5.54701 7.00034 5.60005 7.00034C5.65309 7.00034 5.70396 6.97926 5.74147 6.94176C5.77898 6.90425 5.80005 6.85338 5.80005 6.80034Z" fill="url(#paint2_linear_818_2948)"/>
<defs>
<linearGradient id="paint0_linear_818_2948" x1="0.199951" y1="0.600342" x2="4.92878" y2="7.22131" gradientUnits="userSpaceOnUse">
<stop stop-color="#1389FF"/>
<stop offset="1" stop-color="#1DB4E7"/>
</linearGradient>
<linearGradient id="paint1_linear_818_2948" x1="2" y1="6.00034" x2="3.6" y2="7.60034" gradientUnits="userSpaceOnUse">
<stop stop-color="#1389FF"/>
<stop offset="1" stop-color="#1DB4E7"/>
</linearGradient>
<linearGradient id="paint2_linear_818_2948" x1="4.80005" y1="6.00034" x2="6.40005" y2="7.60034" gradientUnits="userSpaceOnUse">
<stop stop-color="#1389FF"/>
<stop offset="1" stop-color="#1DB4E7"/>
</linearGradient>
</defs>
</svg>
