<svg width="11" height="11" viewBox="0 0 11 11" fill="none" xmlns="http://www.w3.org/2000/svg">
<path d="M7.49995 5.00001H5.99995V3.50001C5.99995 3.36741 5.94727 3.24023 5.85351 3.14646C5.75974 3.05269 5.63256 3.00001 5.49995 3.00001C5.36734 3.00001 5.24017 3.05269 5.1464 3.14646C5.05263 3.24023 4.99995 3.36741 4.99995 3.50001V5.00001H3.49995C3.36734 5.00001 3.24017 5.05269 3.1464 5.14646C3.05263 5.24023 2.99995 5.3674 2.99995 5.50001C2.99995 5.63262 3.05263 5.7598 3.1464 5.85357C3.24017 5.94733 3.36734 6.00001 3.49995 6.00001H4.99995V7.50001C4.99995 7.63262 5.05263 7.7598 5.1464 7.85357C5.24017 7.94733 5.36734 8.00001 5.49995 8.00001C5.63256 8.00001 5.75974 7.94733 5.85351 7.85357C5.94727 7.7598 5.99995 7.63262 5.99995 7.50001V6.00001H7.49995C7.63256 6.00001 7.75974 5.94733 7.85351 5.85357C7.94727 5.7598 7.99995 5.63262 7.99995 5.50001C7.99995 5.3674 7.94727 5.24023 7.85351 5.14646C7.75974 5.05269 7.63256 5.00001 7.49995 5.00001ZM10.855 10.145L8.99995 8.30501C9.72 7.40722 10.0687 6.26766 9.97436 5.12066C9.88001 3.97366 9.34979 2.9064 8.49271 2.13834C7.63564 1.37027 6.51686 0.959768 5.36641 0.991248C4.21597 1.02273 3.12131 1.49379 2.30752 2.30758C1.49373 3.12137 1.02267 4.21603 0.991187 5.36647C0.959707 6.51692 1.37021 7.6357 2.13827 8.49277C2.90634 9.34985 3.9736 9.88007 5.1206 9.97442C6.2676 10.0688 7.40716 9.72006 8.30495 9.00001L10.145 10.84C10.1914 10.8869 10.2467 10.9241 10.3077 10.9495C10.3686 10.9748 10.4339 10.9879 10.5 10.9879C10.566 10.9879 10.6313 10.9748 10.6922 10.9495C10.7532 10.9241 10.8085 10.8869 10.855 10.84C10.9451 10.7468 10.9954 10.6222 10.9954 10.4925C10.9954 10.3628 10.9451 10.2382 10.855 10.145ZM5.49995 9.00001C4.80772 9.00001 4.13103 8.79474 3.55546 8.41016C2.97988 8.02557 2.53128 7.47895 2.26637 6.83941C2.00147 6.19986 1.93216 5.49613 2.0672 4.8172C2.20225 4.13826 2.53559 3.51462 3.02508 3.02514C3.51456 2.53566 4.1382 2.20231 4.81714 2.06726C5.49607 1.93222 6.1998 2.00153 6.83934 2.26643C7.47889 2.53134 8.02551 2.97995 8.4101 3.55552C8.79468 4.13109 8.99995 4.80778 8.99995 5.50001C8.99995 6.42827 8.6312 7.31851 7.97483 7.97489C7.31845 8.63126 6.42821 9.00001 5.49995 9.00001Z" fill="#404040"/>
</svg>
